<svg height="70.555557mm" viewBox="0 0 250.00001 250" width="70.555557mm" xmlns="http://www.w3.org/2000/svg"><g transform="translate(-2.643117 -4.576489)"><circle cx="127.64312" cy="129.57649" fill="#ffe6d5" fill-rule="evenodd" r="124.38236" stroke="#000" stroke-width="1.235282"/><path d="m46.144563 121.06447c12.09959-8.52689 25.10021-15.09899 38.10974-21.786336 5.38597-2.99865 11.20835-4.94418 16.739057-7.5897.75899-.43227 1.51211-.87617 2.27697-1.29681.71324-.39226 1.44781-.74093 2.15681-1.1416 12.1173-6.84774-28.481027 17.898776-12.746927 7.52719 3.80337-2.40292 7.337647-5.21735 10.958047-7.90348 3.19227-2.20257 5.28529-4.99953 6.44945-8.79185 1.19559-4.38669.004-8.53241-2.2449-12.2664-2.32699-3.46424-5.17611-5.90537-9.252457-6.30996-2.62903.36369-5.13633 1.04493-7.47489 2.39148-.63494.3656-2.48131 1.56918-1.85183 1.19325 6.15727-3.67732 12.290777-7.39862 18.436167-11.09793-3.56185 2.28733-4.95005 5.91583-5.71478 10.03243-.18143 4.8291.25843 9.72977 1.35485 14.42309 1.29157 4.86548 3.07931 9.56031 4.51617 14.37717 1.41539 4.24304 2.24609 8.618146 4.18371 12.647536 1.87421 3.58996 3.26506 7.42637 4.30968 11.36483 1.01427 4.08867 1.17287 8.32316 1.3073 12.52415.0154 4.2195-1.48842 8.0524-3.51642 11.60515-2.08313 3.59895-4.41335 6.99223-7.25526 9.96338-8.948507 8.11507-19.974127 13.47585-30.093197 19.53141-3.82236 1.53746-7.93187 1.6892-11.97218 1.83631-4.89715-.33351-9.28704-2.34296-12.8676-5.82691-2.83592-3.38353-3.57109-7.57879-3.09655-11.9432.99929-4.77569 3.9795-8.23362 7.46841-11.2314 9.94932-6.80111 20.20796-15.49707 32.29887-17.41801 4.07252-.54877 8.18373-.51142 12.280817-.51993 4.00507.0204 8.01026.0254 12.01534.0473 4.54403.0319 9.08816.0279 13.63225.0147 4.25655-.32177 8.40387.31345 12.60403.89631 4.16985 1.03834 8.0377 3.05032 12.1 4.45478 3.88804 1.10985 7.91757 1.29743 11.92072 1.41019 3.98001.0628 7.96067.0394 11.94091.0182 3.51553-.49799 6.94461-1.31144 10.39505-2.11531 1.84841-.69285 3.7345-1.4578 5.47965-2.4125.65889-.36044 2.55167-1.6001 1.90616-1.21373-18.328 10.97037-24.1327 15.21324-16.24982 9.56085 3.99881-2.76685 6.9146-6.16999 8.5812-10.88586 1.31518-4.73936 1.56801-8.0944-.27863-12.68082-1.90572-4.05693-4.59978-7.15693-8.61944-8.78327-3.78804-1.16554-7.12958.45089-10.53127 2.00603 1.59668-1.75841-7.28769 3.92279-4.99098 2.5432 32.91618-19.772006 22.49608-13.815426 15.45598-9.124136-3.42496 2.075726-6.65681 4.408456-9.70412 7.055236-3.08955 2.64728-5.87712 5.48796-7.5182 9.34681-1.32096 5.06561.33916 9.99593 1.55259 14.86923 1.21097 4.53051 1.67677 9.19176 1.93548 13.8719.28353 4.30028.18706 8.56295-.64161 12.78658-.91851 4.02715-2.2523 7.92074-3.65913 11.78144-1.89404 4.77277-4.00485 9.44555-5.89313 14.22038-1.45419 4.34175-3.87046 7.89381-7.28073 10.72672-10.25271 6.64004-20.79805 13.10932-31.72487 18.53204-.70412.24308-1.40825.48615-2.11238.72923 0 0 18.68013-15.41983 18.68013-15.41983.66199-.30403 1.32399-.60808 1.98598-.91212 1.96089-1.04237 3.92033-2.08835 5.88912-3.1141.66559-.34678 2.63909-1.43146 2.0006-1.03211-16.18952 10.1258-25.25434 15.07617-16.799 10.42386.14147-.0989 3.17861-2.21182 3.35257-2.37313 2.01765-1.87097 3.42243-4.54451 4.48772-7.0854 1.79332-4.81617 3.96349-9.45513 5.89273-14.21017 1.47503-3.72617 2.6681-7.57392 3.734-11.44839 1.13982-3.96607 1.21161-8.01487.9741-12.13301-.1742-4.5303-.5372-9.05576-1.63562-13.45823-1.30462-5.31-2.98844-10.57614-2.28296-16.15253 1.17474-4.41064 3.69458-7.67693 7.05572-10.55512 2.95562-2.76927 6.00257-5.46532 9.5625-7.34545 9.62978-6.83583 19.51673-13.591916 30.37106-18.012216 3.8494-1.51391 7.76161-2.10369 11.67452-.37195 4.242 2.31975 7.28557 5.8937 9.43782 10.399236 2.28899 5.36324 2.37389 8.58504 1.09422 14.27812-1.44762 5.41135-3.57474 9.05749-8.01644 12.34808-9.6221 7.74277-20.40639 14.76347-32.08795 18.42385-3.5079.87187-7.10071 1.48577-10.70286 1.66391-3.99379.003-7.98939.0403-11.98127-.11337-4.16605-.21466-8.34306-.60945-12.32514-2.01598-3.88606-1.49478-7.7015-3.369-11.81884-4.03946-4.12994-.5645-8.25078-.81024-12.41912-.63656-4.54864-.0158-9.097287-.0222-13.645947-.0121-4.0032-.002-8.00632-.0462-12.00956-.027-4.01005.0354-8.04749.0834-11.99823.894-2.0171.52987-3.92287 1.12775-5.81092 2.06521-.66926.33229-2.60993 1.46783-1.97265 1.07189.34356-.21344 26.28065-16.10576 16.44971-10.08206-3.38485 2.5913-6.61459 5.22557-8.11844 9.52538-.87828 3.4815-.44051 6.9509 1.9079 9.71135 3.33452 3.00263 7.44461 4.40749 11.84188 4.20953 3.90784-.25962 7.82847-.69541 11.3611-2.6329-35.08812 21.56267-17.94424 11.62773-10.45305 5.59008 2.95527-2.73819 5.53177-5.77768 7.47495-9.419 2.10082-3.05657 3.80274-6.39681 4.13178-10.22371-.0747-4.01755-.1692-8.06637-1.03793-11.99872-.94596-3.7882-2.31224-7.46227-4.05136-10.9265-2.02269-4.16432-2.96174-8.63026-4.3582-13.04629-1.36801-4.881406-3.23417-9.585966-4.53936-14.487976-1.27162-4.9894-1.66583-10.13491-1.86264-15.28845.49861-4.45158 1.55559-8.94769 4.945-11.9656 7.38581-4.55344 14.739817-9.16462 22.157437-13.66031 3.09952-1.87855 6.81353-2.63865 10.34274-2.23572 4.39055 1.3377 7.71055 4.04236 10.26146 8.06326 2.4468 4.23268 4.15451 9.03894 3.20288 14.05789-.96564 4.46597-2.30198 7.51865-5.83094 10.3904-3.62354 2.70888-7.13813 5.58709-10.9616 7.98461-10.14325 7.50709-21.154237 13.784816-32.320897 19.464836-5.55904 2.42633-11.20621 4.64915-16.55277 7.58444-8.88522 4.63856-35.14824 18.91014 2.43357-2.72836 0 0-22.18361 9.06467-22.18361 9.06467z" fill="#f60"/></g></svg>