<svg height="18" viewBox="0 0 480 480" width="18" xmlns="http://www.w3.org/2000/svg" xmlns:xlink="http://www.w3.org/1999/xlink"><linearGradient id="a"><stop offset="0" stop-color="#fff" stop-opacity=".79381"/><stop offset=".83784" stop-color="#fff" stop-opacity="0"/><stop offset="1" stop-color="#fff" stop-opacity="0"/></linearGradient><radialGradient id="b" cx="240" cy="240" gradientUnits="userSpaceOnUse" r="225"><stop offset="0" stop-color="#0083ff" stop-opacity="0"/><stop offset="1" stop-color="#0054ff" stop-opacity=".41237"/></radialGradient><linearGradient id="c" gradientUnits="userSpaceOnUse" x1="27.401" x2="452.6" y1="311.83" y2="311.83"><stop offset="0" stop-color="#0048cd"/><stop offset="1" stop-color="#002aa0"/></linearGradient><linearGradient id="d" gradientUnits="userSpaceOnUse" x1="38.881" x2="441.12" y1="152.75" y2="152.75"><stop offset="0" stop-color="#5e99dd"/><stop offset="1" stop-color="#0461c9"/></linearGradient><radialGradient id="e" cx="196.07" cy="167.5" gradientTransform="matrix(-.5679 -1.4348 1.4011 -.55456 -81.877 420.14)" gradientUnits="userSpaceOnUse" r="240" xlink:href="#a"/><radialGradient id="f" cx="240" cy="240" gradientUnits="userSpaceOnUse" r="240" xlink:href="#a"/><path d="m240 0c-132.34 0-240 107.66-240 240s107.66 240 240 240 240-107.66 240-240-107.66-240-240-240z" fill="#003fc0"/><path d="m465 240c0 124.07-100.93 225-225 225s-225-100.93-225-225 100.93-225 225-225 225 100.93 225 225z" fill="#649efa"/><path d="m240 278.09c78.17 0 145.31-44.43 201.12-107.03-28.7-83.491-108.01-143.66-201.12-143.66-93.11.001-172.42 60.169-201.12 143.66 55.81 62.6 122.95 107.03 201.12 107.03z" fill="url(#d)"/><path d="m240 278.09c-78.17 0-145.31-44.43-201.12-107.03-7.433 21.63-11.479 44.82-11.479 68.94 0 117.23 95.369 212.6 212.6 212.6s212.6-95.37 212.6-212.6c0-24.12-4.05-47.31-11.48-68.94-55.81 62.6-122.95 107.03-201.12 107.03z" fill="url(#c)"/><g fill-rule="evenodd"><path d="m465 240c0 124.07-100.93 225-225 225s-225-100.93-225-225 100.93-225 225-225 225 100.93 225 225z" fill="url(#e)"/><path d="m240 0c-132.34 0-240 107.66-240 240s107.66 240 240 240 240-107.66 240-240-107.66-240-240-240z" fill="url(#f)"/><path d="m465 240c0 124.07-100.93 225-225 225s-225-100.93-225-225 100.93-225 225-225 225 100.93 225 225z" fill="url(#b)"/></g><path d="m203.24 253.14c0-30.39-1-30.89-28.9-34.38v-16.94h107.12v157.94c0 28.4 2.49 30.89 28.9 33.88v19.43h-136.02v-19.43c26.41-2.99 28.9-5.48 28.9-33.88zm81.21-136.52c0 23.92-18.93 43.35-43.35 43.35-23.41 0-43.34-19.43-43.34-43.35 0-24.408 19.93-43.341 43.34-43.341 24.42 0 43.35 18.933 43.35 43.341z" fill="#fff" stroke="#0064d4" stroke-width="5"/></svg>